<?xml version="1.0" encoding="UTF-8" standalone="no"?>
<!-- Created with Inkscape (http://www.inkscape.org/) -->

<svg
   width="1264.6228mm"
   height="669.45221mm"
   viewBox="0 0 1264.6228 669.45221"
   version="1.1"
   id="svg4502"
   inkscape:version="1.1 (c4e8f9ed74, 2021-05-24)"
   sodipodi:docname="muons-experiment-1.svg"
   xmlns:inkscape="http://www.inkscape.org/namespaces/inkscape"
   xmlns:sodipodi="http://sodipodi.sourceforge.net/DTD/sodipodi-0.dtd"
   xmlns="http://www.w3.org/2000/svg"
   xmlns:svg="http://www.w3.org/2000/svg"
   xmlns:ns2="http://www.iki.fi/pav/software/textext/">
  <sodipodi:namedview
     id="namedview4504"
     pagecolor="#ffffff"
     bordercolor="#666666"
     borderopacity="1.0"
     inkscape:pageshadow="2"
     inkscape:pageopacity="0.0"
     inkscape:pagecheckerboard="0"
     inkscape:document-units="mm"
     showgrid="false"
     inkscape:zoom="0.081418217"
     inkscape:cx="2382.7591"
     inkscape:cy="1258.932"
     inkscape:window-width="1360"
     inkscape:window-height="690"
     inkscape:window-x="0"
     inkscape:window-y="25"
     inkscape:window-maximized="1"
     inkscape:current-layer="layer1" />
  <defs
     id="defs4499">
    <marker
       inkscape:collect="always"
       inkscape:isstock="true"
       style="overflow:visible"
       id="StopL-3"
       refX="0"
       refY="0"
       orient="auto"
       inkscape:stockid="StopL">
      <path
         transform="scale(0.8)"
         style="fill:none;fill-opacity:0.75;fill-rule:evenodd;stroke:#000000;stroke-width:1pt;stroke-opacity:1"
         d="M 0,5.65 V -5.65"
         id="path1109" />
    </marker>
    <marker
       inkscape:collect="always"
       inkscape:isstock="true"
       style="overflow:visible"
       id="marker1435"
       refX="0"
       refY="0"
       orient="auto"
       inkscape:stockid="StopL">
      <path
         transform="scale(0.8)"
         style="fill:none;fill-opacity:0.75;fill-rule:evenodd;stroke:#000000;stroke-width:1pt;stroke-opacity:1"
         d="M 0,5.65 V -5.65"
         id="path1433" />
    </marker>
    <marker
       inkscape:stockid="StopL"
       orient="auto"
       refY="0"
       refX="0"
       id="marker1519"
       style="overflow:visible"
       inkscape:isstock="true">
      <path
         id="path1517"
         d="M 0,5.65 V -5.65"
         style="fill:none;fill-opacity:0.75;fill-rule:evenodd;stroke:#000000;stroke-width:1pt;stroke-opacity:1"
         transform="scale(0.8)" />
    </marker>
    <marker
       inkscape:stockid="StopL"
       orient="auto"
       refY="0"
       refX="0"
       id="marker1529"
       style="overflow:visible"
       inkscape:isstock="true">
      <path
         id="path1527"
         d="M 0,5.65 V -5.65"
         style="fill:none;fill-opacity:0.75;fill-rule:evenodd;stroke:#000000;stroke-width:1pt;stroke-opacity:1"
         transform="scale(0.8)" />
    </marker>
    <marker
       inkscape:stockid="StopL"
       orient="auto"
       refY="0"
       refX="0"
       id="marker1798"
       style="overflow:visible"
       inkscape:isstock="true"
       inkscape:collect="always">
      <path
         id="path1796"
         d="M 0,5.65 V -5.65"
         style="fill:none;fill-opacity:0.75;fill-rule:evenodd;stroke:#000000;stroke-width:1pt;stroke-opacity:1"
         transform="scale(0.8)" />
    </marker>
    <marker
       inkscape:stockid="StopL"
       orient="auto"
       refY="0"
       refX="0"
       id="marker1808"
       style="overflow:visible"
       inkscape:isstock="true"
       inkscape:collect="always">
      <path
         id="path1806"
         d="M 0,5.65 V -5.65"
         style="fill:none;fill-opacity:0.75;fill-rule:evenodd;stroke:#000000;stroke-width:1pt;stroke-opacity:1"
         transform="scale(0.8)" />
    </marker>
    <marker
       inkscape:isstock="true"
       style="overflow:visible"
       id="marker18747"
       refX="0"
       refY="0"
       orient="auto"
       inkscape:stockid="StopL">
      <path
         transform="scale(0.8)"
         style="fill:none;fill-opacity:0.75;fill-rule:evenodd;stroke:#000000;stroke-width:1pt;stroke-opacity:1"
         d="M 0,5.65 V -5.65"
         id="path18745" />
    </marker>
    <marker
       inkscape:isstock="true"
       style="overflow:visible"
       id="marker18757"
       refX="0"
       refY="0"
       orient="auto"
       inkscape:stockid="StopL">
      <path
         transform="scale(0.8)"
         style="fill:none;fill-opacity:0.75;fill-rule:evenodd;stroke:#000000;stroke-width:1pt;stroke-opacity:1"
         d="M 0,5.65 V -5.65"
         id="path18755" />
    </marker>
    <g
       id="id-e991e2bc-24d0-4e5c-a624-26aa452e9832">
      <symbol
         overflow="visible"
         id="id-78b13b67-74af-43bc-bee2-b38c1abac414">
        <path
           style="stroke:none"
           d=""
           id="id-f0bd6eca-21e8-41a2-b2bc-d1a7b51cb555" />
      </symbol>
      <symbol
         overflow="visible"
         id="id-4780a27c-52e1-462d-afc0-91518346dba9">
        <path
           style="stroke:none"
           d="M 4.703125,-0.796875 4.65625,-0.875 H 1.578125 c -0.046875,0 -0.125,-0.015625 -0.125,-0.078125 0,-0.015625 0,-0.03125 0.015625,-0.03125 C 2.296875,-1.96875 3.1875,-2.96875 3.765625,-4.03125 4.03125,-4.5 4.25,-4.96875 4.25,-5.515625 4.25,-6.375 3.625,-7.0625 2.734375,-7.0625 c -0.828125,0 -1.5625,0.53125 -2.09375,1.125 L 0.84375,-5.734375 C 1.21875,-6.0625 1.65625,-6.375 2.203125,-6.375 c 0.84375,0 1.125,0.796875 1.125,1.3125 0,1.1875 -0.78125,2.1875 -1.546875,3.09375 C 1.25,-1.34375 0.6875,-0.75 0.125,-0.171875 v 0.15625 h 4.34375 z m 0,0"
           id="id-3424aa43-57e9-4372-89a9-3ad82530353e" />
      </symbol>
      <symbol
         overflow="visible"
         id="id-93c4c188-4721-4656-a645-6fc90808d82e">
        <path
           style="stroke:none"
           d="m 2.890625,-7.015625 c -0.4375,0.171875 -0.921875,0.421875 -1.25,0.75 -0.859375,0.84375 -1.296875,2.046875 -1.296875,3.25 0,1.140625 0.28125,3.15625 1.71875,3.15625 1.828125,0 2.515625,-2.109375 2.515625,-3.6875 0,-1.328125 -0.484375,-2.703125 -1.6875,-3.46875 z M 2.328125,-6.375 c 0.453125,0.1875 0.890625,0.875 0.96875,1 0.4375,0.796875 0.671875,1.640625 0.671875,2.53125 0,0.96875 -0.234375,2.328125 -1.453125,2.328125 -0.640625,0 -1.09375,-0.796875 -1.296875,-1.46875 C 1.0625,-2.53125 1,-3.125 1,-3.703125 c 0,-1 0.453125,-2.125 1.328125,-2.671875 z m 0,0"
           id="id-dbf99078-a4d7-459d-8140-558f89fb606b" />
      </symbol>
      <symbol
         overflow="visible"
         id="id-007a602a-b4fa-47b8-9f9c-690eb737aae9">
        <path
           style="stroke:none"
           d="M 2.09375,-0.171875 C 2.078125,-0.578125 2.0625,-0.875 2.0625,-1.15625 c 0,-0.734375 0.03125,-1.609375 0.0625,-2.328125 0.359375,-0.28125 0.828125,-0.609375 1.28125,-0.609375 0.703125,0 0.90625,0.609375 0.90625,1.609375 L 4.25,-0.78125 c 0,0.484375 0.171875,0.875 0.71875,0.875 0.484375,0 1.109375,-0.4375 1.578125,-0.875 L 6.453125,-1 H 6.3125 c -0.234375,0.1875 -0.5625,0.40625 -0.796875,0.40625 -0.546875,0 -0.46875,-0.453125 -0.46875,-1.953125 0,-0.640625 0,-1.59375 -0.203125,-1.84375 -0.1875,-0.21875 -0.484375,-0.28125 -0.765625,-0.28125 -0.640625,0 -1.328125,0.375 -1.890625,0.71875 l -0.078125,-0.0625 c -0.0625,-0.375 -0.21875,-0.671875 -0.71875,-0.671875 -0.359375,0 -0.9375,0.40625 -1.34375,0.703125 l 0.171875,0.21875 c 0.296875,-0.1875 0.53125,-0.34375 0.75,-0.34375 0.328125,0 0.359375,0.46875 0.359375,1.140625 0,0.8125 -0.0625,2.453125 -0.078125,2.953125 L 1.390625,0.0625 Z m 0,0"
           id="id-52a5d86a-0698-4e19-9066-f0efed720a10" />
      </symbol>
      <symbol
         overflow="visible"
         id="id-45a2cd21-b9fb-4636-8522-c04e8bcbb008">
        <path
           style="stroke:none"
           d="M 3.75,-3.8125 C 3.71875,-4.421875 3.140625,-4.640625 2.625,-4.640625 c -0.828125,0 -1.734375,0.53125 -1.734375,1.421875 0,0.65625 0.625,1.015625 1.25,1.28125 0.46875,0.1875 0.984375,0.46875 0.984375,0.96875 0,0.40625 -0.421875,0.765625 -0.84375,0.765625 -0.625,0 -1.09375,-0.53125 -1.140625,-1.15625 H 1 L 0.515625,-0.65625 c 0.328125,0.625 0.875,0.828125 1.46875,0.828125 0.875,0 1.875,-0.53125 1.875,-1.546875 0,-0.46875 -0.375,-0.828125 -1.140625,-1.15625 -0.734375,-0.3125 -1.109375,-0.5625 -1.109375,-0.953125 0,-0.46875 0.359375,-0.8125 0.828125,-0.8125 0.4375,0 0.609375,0.34375 0.640625,0.78125 l 0.125,0.0625 z m 0,0"
           id="id-8f63ea99-9a7f-4ce1-95ac-2aba86be6bc4" />
      </symbol>
    </g>
    <g
       id="id-4f9ae5b5-81e1-4a78-bf14-fa1a2c6b4204">
      <symbol
         overflow="visible"
         id="id-65b7fbd4-4c86-41ee-8116-766f19f2dcd3">
        <path
           style="stroke:none"
           d=""
           id="id-b21433e5-adee-4706-bde6-47212417868a" />
      </symbol>
      <symbol
         overflow="visible"
         id="id-de05e832-10a9-4278-8efb-ddb2fc8d52ce">
        <path
           style="stroke:none"
           d="m 1.375,-5.796875 c 0.015625,0.25 0.015625,0.890625 0.015625,1.40625 l -0.0625,0.046875 h -1.03125 l -0.0625,0.0625 -0.0625,0.25 0.046875,0.046875 h 1.109375 l 0.0625,0.0625 v 1.890625 c 0,1.359375 0.03125,1.546875 0.234375,1.8125 0.171875,0.234375 0.484375,0.3125 0.71875,0.3125 0.578125,0 1.171875,-0.453125 1.640625,-0.875 L 3.90625,-0.9375 3.78125,-0.953125 c -0.296875,0.1875 -0.65625,0.40625 -0.90625,0.40625 -0.625,0 -0.703125,-0.78125 -0.703125,-1.5 v -1.875 l 0.0625,-0.0625 h 1.1875 L 3.484375,-4.03125 3.5625,-4.296875 3.515625,-4.34375 h -1.28125 l -0.0625,-0.046875 C 2.1875,-4.96875 2.234375,-5.46875 2.28125,-6.046875 L 2.21875,-6.09375 Z m 0,0"
           id="id-2a964d6a-67c0-40ba-bbdd-a2bfbf3bbf24" />
      </symbol>
      <symbol
         overflow="visible"
         id="id-3d9174a2-069a-4c26-9d98-e1d22dddb482">
        <path
           style="stroke:none"
           d="M 3.078125,-7.09375 0.921875,-6.375 v 0.28125 H 1.75 c 0.609375,0 0.46875,0.8125 0.46875,1.921875 C 2.21875,-2.78125 2.1875,-1.390625 2.140625,0 L 2.25,0.046875 3.09375,-0.21875 C 3.0625,-0.984375 3.0625,-2.953125 3.0625,-4.3125 c 0,-0.875 0.015625,-1.78125 0.0625,-2.671875 z m 0,0"
           id="id-9040bf12-101c-4ba8-b950-4dc59a61f4bb" />
      </symbol>
      <symbol
         overflow="visible"
         id="id-e5016cbe-413b-4758-9bb2-9fdcbf80410d">
        <path
           style="stroke:none"
           d="m 1.25,-5.921875 c 0,-0.0625 0.0625,-0.09375 0.109375,-0.09375 0.484375,0 1.734375,-0.03125 2.609375,-0.0625 L 4.234375,-6.84375 h -3.34375 l -0.0625,0.0625 v 3.265625 l 0.125,0.109375 C 1.28125,-3.71875 1.6875,-3.9375 2.125,-3.9375 c 1.03125,0 1.390625,0.890625 1.390625,1.71875 0,1.015625 -0.546875,1.953125 -1.65625,1.953125 -0.625,0 -0.96875,-0.5625 -1.1875,-1.046875 H 0.5625 L 0.125,-0.75 v 0.109375 c 0.40625,0.484375 1.015625,0.75 1.65625,0.75 1.4375,0 2.6875,-1.09375 2.6875,-2.609375 0,-1.125 -0.734375,-1.921875 -1.90625,-1.921875 -0.453125,0 -0.90625,0.171875 -1.3125,0.375 z m 0,0"
           id="id-2b3d4948-0729-4e34-9b7c-098ce547e64b" />
      </symbol>
      <symbol
         overflow="visible"
         id="id-62545610-89bf-4e5c-8c09-a6c71fca3369">
        <path
           style="stroke:none"
           d="m 2.890625,-7.015625 c -0.4375,0.171875 -0.921875,0.421875 -1.25,0.75 -0.859375,0.84375 -1.296875,2.046875 -1.296875,3.25 0,1.140625 0.28125,3.15625 1.71875,3.15625 1.828125,0 2.515625,-2.109375 2.515625,-3.6875 0,-1.328125 -0.484375,-2.703125 -1.6875,-3.46875 z M 2.328125,-6.375 c 0.453125,0.1875 0.890625,0.875 0.96875,1 0.4375,0.796875 0.671875,1.640625 0.671875,2.53125 0,0.96875 -0.234375,2.328125 -1.453125,2.328125 -0.640625,0 -1.09375,-0.796875 -1.296875,-1.46875 C 1.0625,-2.53125 1,-3.125 1,-3.703125 c 0,-1 0.453125,-2.125 1.328125,-2.671875 z m 0,0"
           id="id-eb00e1aa-9a9a-4834-88f4-50bdd8c5e531" />
      </symbol>
      <symbol
         overflow="visible"
         id="id-99f5c576-4c3f-4889-b138-119ab566a140">
        <path
           style="stroke:none"
           d="M 2.09375,-0.171875 C 2.078125,-0.578125 2.0625,-0.875 2.0625,-1.15625 c 0,-0.734375 0.03125,-1.609375 0.0625,-2.328125 0.359375,-0.28125 0.828125,-0.609375 1.28125,-0.609375 0.703125,0 0.90625,0.609375 0.90625,1.609375 L 4.25,-0.78125 c 0,0.484375 0.171875,0.875 0.71875,0.875 0.484375,0 1.109375,-0.4375 1.578125,-0.875 L 6.453125,-1 H 6.3125 c -0.234375,0.1875 -0.5625,0.40625 -0.796875,0.40625 -0.546875,0 -0.46875,-0.453125 -0.46875,-1.953125 0,-0.640625 0,-1.59375 -0.203125,-1.84375 -0.1875,-0.21875 -0.484375,-0.28125 -0.765625,-0.28125 -0.640625,0 -1.328125,0.375 -1.890625,0.71875 l -0.078125,-0.0625 c -0.0625,-0.375 -0.21875,-0.671875 -0.71875,-0.671875 -0.359375,0 -0.9375,0.40625 -1.34375,0.703125 l 0.171875,0.21875 c 0.296875,-0.1875 0.53125,-0.34375 0.75,-0.34375 0.328125,0 0.359375,0.46875 0.359375,1.140625 0,0.8125 -0.0625,2.453125 -0.078125,2.953125 L 1.390625,0.0625 Z m 0,0"
           id="id-2e98a499-9428-4c02-8293-d9e76eeec902" />
      </symbol>
      <symbol
         overflow="visible"
         id="id-24bc2f15-f9ac-4d60-9bf1-a1e589a3c121">
        <path
           style="stroke:none"
           d="M 3.75,-3.8125 C 3.71875,-4.421875 3.140625,-4.640625 2.625,-4.640625 c -0.828125,0 -1.734375,0.53125 -1.734375,1.421875 0,0.65625 0.625,1.015625 1.25,1.28125 0.46875,0.1875 0.984375,0.46875 0.984375,0.96875 0,0.40625 -0.421875,0.765625 -0.84375,0.765625 -0.625,0 -1.09375,-0.53125 -1.140625,-1.15625 H 1 L 0.515625,-0.65625 c 0.328125,0.625 0.875,0.828125 1.46875,0.828125 0.875,0 1.875,-0.53125 1.875,-1.546875 0,-0.46875 -0.375,-0.828125 -1.140625,-1.15625 -0.734375,-0.3125 -1.109375,-0.5625 -1.109375,-0.953125 0,-0.46875 0.359375,-0.8125 0.828125,-0.8125 0.4375,0 0.609375,0.34375 0.640625,0.78125 l 0.125,0.0625 z m 0,0"
           id="id-2ee60ec5-d20f-42b8-8c37-f0e64b307b8c" />
      </symbol>
      <symbol
         overflow="visible"
         id="id-dca5300c-5eb9-418e-b630-e73b6289b65d">
        <path
           style="stroke:none"
           d=""
           id="id-6a6e2321-df7d-4fed-91fd-ef9101e9b58b" />
      </symbol>
      <symbol
         overflow="visible"
         id="id-e39e5b38-324a-4697-9a60-0993a6660487">
        <path
           style="stroke:none"
           d="M 1.9375,1.5625 C 1.890625,1.171875 1.859375,0.4375 1.859375,0.078125 L 1.9375,0.015625 c 0.15625,0.046875 0.328125,0.0625 0.515625,0.0625 0.796875,0 1.671875,-0.59375 2,-1.3125 0.140625,-0.296875 0.21875,-0.6875 0.21875,-1.03125 C 4.671875,-2.8125 4.375,-3.53125 3.5,-3.53125 c -0.59375,0 -1.109375,0.25 -1.578125,0.5625 L 1.859375,-3 c -0.046875,-0.34375 -0.1875,-0.5625 -0.5625,-0.5625 -0.375,0 -0.8125,0.28125 -1.171875,0.515625 L 0.25,-2.90625 C 0.453125,-3.015625 0.703125,-3.125 0.875,-3.125 c 0.25,0 0.34375,0.390625 0.34375,0.734375 v 1.671875 c 0,0.4375 -0.015625,1.984375 -0.0625,2.4375 L 1.25,1.796875 Z M 1.875,-0.5 c 0,0 -0.015625,-0.78125 -0.015625,-1.40625 C 1.859375,-2 1.875,-2.5625 1.875,-2.609375 c 0.40625,-0.28125 0.75,-0.4375 1.1875,-0.4375 0.546875,0 0.890625,0.5625 0.890625,1.234375 0,0.734375 -0.296875,1.59375 -1.328125,1.59375 -0.28125,0 -0.546875,-0.109375 -0.75,-0.28125 z m 0,0"
           id="id-acee84a5-9d0f-487e-b7c9-536cd5b677df" />
      </symbol>
      <symbol
         overflow="visible"
         id="id-a32965c0-ab11-4230-abd5-c5f0c650a809">
        <path
           style="stroke:none"
           d=""
           id="id-efb35246-a998-4101-8c0d-ffbe473d3a0e" />
      </symbol>
      <symbol
         overflow="visible"
         id="id-8b8a9dd3-8a84-4f4a-9568-ff21c4c039a3">
        <path
           style="stroke:none"
           d="m 7.140625,-3.28125 0.0625,-0.390625 H 0.609375 L 0.53125,-3.28125 Z m 0,1.96875 0.0625,-0.40625 H 0.609375 L 0.53125,-1.3125 Z m 0,0"
           id="id-39d4742c-5c46-4f0f-8e3b-3118c230e9f6" />
      </symbol>
    </g>
  </defs>
  <g
     inkscape:label="Capa 1"
     inkscape:groupmode="layer"
     id="layer1"
     transform="translate(527.18379,186.22611)">
    <path
       sodipodi:nodetypes="cc"
       style="fill:none;fill-rule:evenodd;stroke:#000000;stroke-width:2.32959px;stroke-linecap:butt;stroke-linejoin:miter;stroke-opacity:1"
       d="M -511.3795,-124.85114 V 430.93073"
       id="path1271" />
    <g
       id="g915"
       transform="matrix(8.8047715,0,0,8.8047715,-737.57672,-1009.8304)">
      <path
         id="path1469"
         d="m 39.050232,104.45985 h 93.659998 v 3.87422"
         style="fill:none;fill-rule:evenodd;stroke:#000000;stroke-width:0.264583px;stroke-linecap:butt;stroke-linejoin:miter;stroke-opacity:1" />
      <path
         id="path1471"
         d="m 39.050232,104.45985 v 3.87422 h -12.71562 v 0"
         style="fill:none;fill-rule:evenodd;stroke:#000000;stroke-width:0.264583px;stroke-linecap:butt;stroke-linejoin:miter;stroke-opacity:1" />
      <path
         id="path1473"
         d="m 132.71023,108.33407 h 28.606"
         style="fill:none;fill-rule:evenodd;stroke:#000000;stroke-width:0.264583px;stroke-linecap:butt;stroke-linejoin:miter;stroke-opacity:1" />
      <path
         style="fill:none;fill-rule:evenodd;stroke:#000000;stroke-width:0.264583px;stroke-linecap:butt;stroke-linejoin:miter;stroke-opacity:1"
         d="m 111.79928,158.57217 49.23853,-0.0547"
         id="path20537"
         sodipodi:nodetypes="cc" />
    </g>
    <g
       id="g910"
       transform="matrix(8.8047715,0,0,8.8047715,-737.57672,-1009.8304)">
      <path
         style="fill:none;fill-rule:evenodd;stroke:#000000;stroke-width:0.264583px;stroke-linecap:butt;stroke-linejoin:miter;stroke-opacity:1"
         d="m 26.334612,114.43904 h 93.659998 v 3.87422"
         id="path1486" />
      <path
         sodipodi:nodetypes="cc"
         style="fill:none;fill-rule:evenodd;stroke:#000000;stroke-width:0.264583px;stroke-linecap:butt;stroke-linejoin:miter;stroke-opacity:1"
         d="m 119.99461,118.31326 h 41.32162"
         id="path1490" />
    </g>
    <g
       transform="matrix(8.8047715,0,0,8.8047715,-737.57672,-1001.265)"
       id="g906">
      <path
         style="fill:none;fill-rule:evenodd;stroke:#000000;stroke-width:0.265;stroke-linecap:butt;stroke-linejoin:miter;stroke-miterlimit:4;stroke-dasharray:none;stroke-opacity:1"
         d="m 42.85264,123.44541 v 3.93282 h -3.886348 -12.63168"
         id="path1496"
         sodipodi:nodetypes="cccc" />
      <path
         style="fill:none;fill-rule:evenodd;stroke:#000000;stroke-width:0.264583px;stroke-linecap:butt;stroke-linejoin:miter;stroke-opacity:1"
         d="m 42.85264,123.44541 h 93.66 v 3.87422"
         id="path886" />
      <path
         id="path888"
         d="m 136.51264,127.31963 h 24.80359"
         style="fill:none;fill-rule:evenodd;stroke:#000000;stroke-width:0.264583px;stroke-linecap:butt;stroke-linejoin:miter;stroke-opacity:1"
         sodipodi:nodetypes="cc" />
    </g>
    <g
       transform="matrix(8.8047715,0,0,8.8047715,-737.57672,-995.74198)"
       id="g901">
      <g
         id="g924">
        <path
           style="fill:none;fill-rule:evenodd;stroke:#000000;stroke-width:0.264583px;stroke-linecap:butt;stroke-linejoin:miter;stroke-opacity:1"
           d="m 39.050232,132.85593 h 93.659998 v 3.87422"
           id="path892" />
        <path
           style="fill:none;fill-rule:evenodd;stroke:#000000;stroke-width:0.265;stroke-linecap:butt;stroke-linejoin:miter;stroke-miterlimit:4;stroke-dasharray:none;stroke-opacity:1"
           d="m 39.050232,132.85593 v 3.93282 h -3.886348 -8.829272"
           id="path894"
           sodipodi:nodetypes="cccc" />
        <path
           id="path896"
           d="m 132.71023,136.73015 h 28.606"
           style="fill:none;fill-rule:evenodd;stroke:#000000;stroke-width:0.264583px;stroke-linecap:butt;stroke-linejoin:miter;stroke-opacity:1"
           sodipodi:nodetypes="cc" />
      </g>
    </g>
    <g
       id="g934"
       transform="matrix(8.8047715,0,0,8.8047715,-704.0975,-907.36158)"
       style="stroke-width:0.264629;stroke-miterlimit:4;stroke-dasharray:none">
      <g
         id="g932"
         style="stroke-width:0.264629;stroke-miterlimit:4;stroke-dasharray:none">
        <path
           sodipodi:nodetypes="cccc"
           id="path928"
           d="m 39.050232,132.85593 v 3.93282 h -3.886348 -12.63168"
           style="fill:none;fill-rule:evenodd;stroke:#000000;stroke-width:0.264629;stroke-linecap:butt;stroke-linejoin:miter;stroke-miterlimit:4;stroke-dasharray:none;stroke-opacity:1" />
        <path
           sodipodi:nodetypes="cc"
           style="fill:none;fill-rule:evenodd;stroke:#000000;stroke-width:0.264629;stroke-linecap:butt;stroke-linejoin:miter;stroke-miterlimit:4;stroke-dasharray:none;stroke-opacity:1"
           d="m 61.868386,136.76452 95.460534,-0.0344"
           id="path930" />
      </g>
    </g>
    <path
       sodipodi:nodetypes="cc"
       id="path936"
       d="M -393.7477,-55.9737 V 297.03212"
       style="fill:none;fill-rule:evenodd;stroke:#000000;stroke-width:2.32959;stroke-linecap:butt;stroke-linejoin:miter;stroke-miterlimit:4;stroke-dasharray:2.32959, 6.98879;stroke-dashoffset:0;stroke-opacity:1" />
    <path
       id="path938"
       d="M -393.7477,-104.92207 H -505.7066"
       style="fill:none;fill-rule:evenodd;stroke:#000000;stroke-width:2.32959;stroke-linecap:butt;stroke-linejoin:miter;stroke-miterlimit:4;stroke-dasharray:2.32959, 4.65919;stroke-dashoffset:0;stroke-opacity:1;marker-start:url(#StopL-3);marker-end:url(#marker1435)" />
    <path
       sodipodi:nodetypes="cc"
       style="fill:none;fill-rule:evenodd;stroke:#000000;stroke-width:2.32959;stroke-linecap:butt;stroke-linejoin:miter;stroke-miterlimit:4;stroke-dasharray:2.32959, 4.65919;stroke-dashoffset:0;stroke-opacity:1;marker-start:url(#marker1519);marker-end:url(#marker1529)"
       d="M -360.2685,312.77939 H -393.488"
       id="path1515" />
    <path
       style="fill:none;fill-rule:evenodd;stroke:#000000;stroke-width:2.33326;stroke-linecap:butt;stroke-linejoin:miter;stroke-miterlimit:4;stroke-dasharray:2.33326, 4.66653;stroke-dashoffset:0;stroke-opacity:1;marker-start:url(#marker1798);marker-end:url(#marker1808)"
       d="M 431.122,-140.55519 H -393.4449"
       id="path1794" />
    <g
       id="g17494"
       ns2:jacobian_sqrt="0.494976"
       ns2:inkscapeversion="1.0"
       ns2:alignment="middle center"
       ns2:scale="1.4030814199836465"
       ns2:preamble="/home/marcos/Documentos/docto/article-sim/imagenes/figuras.ini"
       ns2:text="$t_{0}$"
       ns2:pdfconverter="inkscape"
       ns2:texconverter="pdflatex"
       ns2:version="1.0.0"
       transform="matrix(5.0989769,0,0,5.0989769,-527.1857,443.10417)">
      <defs
         id="defs17478" />
      <g
         id="g17492"
         transform="translate(-148.946,-128.531)">
        <g
           style="fill:#000000;fill-opacity:1"
           id="g17484">
          <g
             id="g17482"
             transform="translate(148.712,134.765)">
            <path
               style="stroke:none"
               d="m 2.046875,-3.984375 h 0.9375 c 0.203125,0 0.3125,0 0.3125,-0.203125 0,-0.109375 -0.109375,-0.109375 -0.28125,-0.109375 h -0.875 C 2.5,-5.71875 2.546875,-5.90625 2.546875,-5.96875 c 0,-0.171875 -0.125,-0.265625 -0.296875,-0.265625 -0.03125,0 -0.3125,0 -0.390625,0.359375 L 1.46875,-4.296875 h -0.9375 c -0.203125,0 -0.296875,0 -0.296875,0.1875 0,0.125 0.078125,0.125 0.28125,0.125 h 0.875 C 0.671875,-1.15625 0.625,-0.984375 0.625,-0.8125 0.625,-0.265625 1,0.109375 1.546875,0.109375 2.5625,0.109375 3.125,-1.34375 3.125,-1.421875 3.125,-1.53125 3.046875,-1.53125 3.015625,-1.53125 2.921875,-1.53125 2.90625,-1.5 2.859375,-1.390625 2.4375,-0.34375 1.90625,-0.109375 1.5625,-0.109375 c -0.203125,0 -0.3125,-0.125 -0.3125,-0.453125 0,-0.25 0.03125,-0.3125 0.0625,-0.484375 z m 0,0"
               id="path17480" />
          </g>
        </g>
        <g
           style="fill:#000000;fill-opacity:1"
           id="g17490">
          <g
             id="g17488"
             transform="translate(152.31,136.259)">
            <path
               style="stroke:none"
               d="M 3.59375,-2.21875 C 3.59375,-2.984375 3.5,-3.546875 3.1875,-4.03125 2.96875,-4.34375 2.53125,-4.625 1.984375,-4.625 c -1.625,0 -1.625,1.90625 -1.625,2.40625 0,0.5 0,2.359375 1.625,2.359375 1.609375,0 1.609375,-1.859375 1.609375,-2.359375 z M 1.984375,-0.0625 c -0.328125,0 -0.75,-0.1875 -0.890625,-0.75 C 1,-1.21875 1,-1.796875 1,-2.3125 1,-2.828125 1,-3.359375 1.09375,-3.734375 1.25,-4.28125 1.6875,-4.4375 1.984375,-4.4375 c 0.375,0 0.734375,0.234375 0.859375,0.640625 0.109375,0.375 0.125,0.875 0.125,1.484375 0,0.515625 0,1.03125 -0.09375,1.46875 -0.140625,0.640625 -0.609375,0.78125 -0.890625,0.78125 z m 0,0"
               id="path17486" />
          </g>
        </g>
      </g>
    </g>
    <path
       style="fill:none;fill-rule:evenodd;stroke:#000000;stroke-width:2.33;stroke-linecap:butt;stroke-linejoin:miter;stroke-miterlimit:4;stroke-dasharray:none;stroke-opacity:1"
       d="m -360.2692,262.40453 200.9087,34.41424"
       id="path18153" />
    <path
       style="fill:none;fill-rule:evenodd;stroke:#000000;stroke-width:2.32959;stroke-linecap:butt;stroke-linejoin:miter;stroke-miterlimit:4;stroke-dasharray:2.32959, 6.98879;stroke-dashoffset:0;stroke-opacity:1"
       d="m -360.269,120.27123 -10e-5,142.1333"
       id="path18167"
       sodipodi:nodetypes="cc" />
    <path
       sodipodi:nodetypes="cc"
       id="path18743"
       d="M 142.6843,68.612988 H -360.181"
       style="fill:none;fill-rule:evenodd;stroke:#000000;stroke-width:2.33;stroke-linecap:butt;stroke-linejoin:miter;stroke-miterlimit:4;stroke-dasharray:2.33, 4.66;stroke-dashoffset:0;stroke-opacity:1;marker-start:url(#marker18747);marker-end:url(#marker18757)" />
    <g
       id="g19956"
       ns2:jacobian_sqrt="5.09898"
       ns2:inkscapeversion="1.0"
       ns2:alignment="middle center"
       ns2:scale="14.453791192534208"
       ns2:preamble="/home/marcos/Documentos/docto/article-sim/imagenes/figuras.ini"
       ns2:text="$t_{A}$"
       ns2:pdfconverter="inkscape"
       ns2:texconverter="pdflatex"
       ns2:version="1.0.0"
       transform="matrix(5.09898,0,0,5.09898,-475.6963,-152.91338)">
      <defs
         id="id-c2f7e322-19b4-4e4a-8129-27e794cdffc6" />
      <g
         id="id-ef395e32-ba22-46b3-ae8e-d0885e9b0032"
         transform="translate(-148.946,-128.531)">
        <g
           style="fill:#000000;fill-opacity:1"
           id="id-f51f8bf1-244c-43da-8819-8de4f566b13e">
          <g
             id="g19948"
             transform="translate(148.712,134.765)">
            <path
               style="stroke:none"
               d="m 2.046875,-3.984375 h 0.9375 c 0.203125,0 0.3125,0 0.3125,-0.203125 0,-0.109375 -0.109375,-0.109375 -0.28125,-0.109375 h -0.875 C 2.5,-5.71875 2.546875,-5.90625 2.546875,-5.96875 c 0,-0.171875 -0.125,-0.265625 -0.296875,-0.265625 -0.03125,0 -0.3125,0 -0.390625,0.359375 L 1.46875,-4.296875 h -0.9375 c -0.203125,0 -0.296875,0 -0.296875,0.1875 0,0.125 0.078125,0.125 0.28125,0.125 h 0.875 C 0.671875,-1.15625 0.625,-0.984375 0.625,-0.8125 0.625,-0.265625 1,0.109375 1.546875,0.109375 2.5625,0.109375 3.125,-1.34375 3.125,-1.421875 3.125,-1.53125 3.046875,-1.53125 3.015625,-1.53125 2.921875,-1.53125 2.90625,-1.5 2.859375,-1.390625 2.4375,-0.34375 1.90625,-0.109375 1.5625,-0.109375 c -0.203125,0 -0.3125,-0.125 -0.3125,-0.453125 0,-0.25 0.03125,-0.3125 0.0625,-0.484375 z m 0,0"
               id="id-df17270e-a4ad-437e-8a50-14e657f9c4b0" />
          </g>
        </g>
        <g
           style="fill:#000000;fill-opacity:1"
           id="id-22ab6230-22cd-406e-b28e-47dd8ced7e31">
          <g
             id="g19952"
             transform="translate(152.31,136.259)">
            <path
               style="stroke:none"
               d="m 1.4375,-0.84375 c -0.25,0.390625 -0.46875,0.5625 -0.875,0.59375 -0.078125,0 -0.171875,0 -0.171875,0.140625 C 0.390625,-0.03125 0.453125,0 0.5,0 0.671875,0 0.90625,-0.03125 1.09375,-0.03125 1.3125,-0.03125 1.609375,0 1.8125,0 1.84375,0 1.953125,0 1.953125,-0.15625 1.953125,-0.25 1.859375,-0.25 1.828125,-0.25 1.78125,-0.265625 1.53125,-0.265625 1.53125,-0.453125 c 0,-0.09375 0.0625,-0.203125 0.09375,-0.265625 l 0.5625,-0.875 h 2 L 4.34375,-0.4375 C 4.328125,-0.359375 4.28125,-0.25 3.875,-0.25 c -0.09375,0 -0.1875,0 -0.1875,0.15625 C 3.6875,-0.0625 3.703125,0 3.796875,0 4,0 4.5,-0.03125 4.703125,-0.03125 c 0.125,0 0.28125,0.015625 0.40625,0.015625 C 5.234375,-0.015625 5.375,0 5.5,0 5.59375,0 5.640625,-0.0625 5.640625,-0.140625 5.640625,-0.25 5.5625,-0.25 5.453125,-0.25 c -0.40625,0 -0.421875,-0.0625 -0.4375,-0.21875 l -0.625,-4.3125 C 4.375,-4.921875 4.359375,-4.96875 4.234375,-4.96875 4.09375,-4.96875 4.0625,-4.90625 4,-4.8125 Z m 0.921875,-1 L 3.8125,-4.125 4.140625,-1.84375 Z m 0,0"
               id="id-a38a1e53-aa07-4500-96d9-b62c4c68435e" />
          </g>
        </g>
      </g>
    </g>
    <g
       id="g20457"
       ns2:jacobian_sqrt="5.09898"
       ns2:inkscapeversion="1.0"
       ns2:alignment="middle center"
       ns2:scale="14.453791192534208"
       ns2:preamble="/home/marcos/Documentos/docto/article-sim/imagenes/figuras.ini"
       ns2:text="$t_{B}$"
       ns2:pdfconverter="inkscape"
       ns2:texconverter="pdflatex"
       ns2:version="1.0.0"
       transform="matrix(5.1936175,0,0,5.1936175,-400.8862,331.577)">
      <defs
         id="id-90d6335c-09b3-442b-bf93-b6c5c808ead7" />
      <g
         id="id-3d4aea2c-652c-4333-9197-74d6420eb6a6"
         transform="translate(-148.946,-128.531)">
        <g
           style="fill:#000000;fill-opacity:1"
           id="id-6a3abf1e-cb68-434e-8c4e-bd75bc174735">
          <g
             id="g20449"
             transform="translate(148.712,134.765)">
            <path
               style="stroke:none"
               d="m 2.046875,-3.984375 h 0.9375 c 0.203125,0 0.3125,0 0.3125,-0.203125 0,-0.109375 -0.109375,-0.109375 -0.28125,-0.109375 h -0.875 C 2.5,-5.71875 2.546875,-5.90625 2.546875,-5.96875 c 0,-0.171875 -0.125,-0.265625 -0.296875,-0.265625 -0.03125,0 -0.3125,0 -0.390625,0.359375 L 1.46875,-4.296875 h -0.9375 c -0.203125,0 -0.296875,0 -0.296875,0.1875 0,0.125 0.078125,0.125 0.28125,0.125 h 0.875 C 0.671875,-1.15625 0.625,-0.984375 0.625,-0.8125 0.625,-0.265625 1,0.109375 1.546875,0.109375 2.5625,0.109375 3.125,-1.34375 3.125,-1.421875 3.125,-1.53125 3.046875,-1.53125 3.015625,-1.53125 2.921875,-1.53125 2.90625,-1.5 2.859375,-1.390625 2.4375,-0.34375 1.90625,-0.109375 1.5625,-0.109375 c -0.203125,0 -0.3125,-0.125 -0.3125,-0.453125 0,-0.25 0.03125,-0.3125 0.0625,-0.484375 z m 0,0"
               id="id-8c51434d-9df1-4442-9f24-cd4cf5145c90" />
          </g>
        </g>
        <g
           style="fill:#000000;fill-opacity:1"
           id="id-0fb071e8-c97c-43c2-9a17-d1e97bbc0cdc">
          <g
             id="g20453"
             transform="translate(152.31,136.259)">
            <path
               style="stroke:none"
               d="M 1.328125,-0.546875 C 1.265625,-0.3125 1.25,-0.25 0.703125,-0.25 0.59375,-0.25 0.5,-0.25 0.5,-0.109375 0.5,0 0.578125,0 0.703125,0 H 3.40625 c 1.171875,0 2.078125,-0.796875 2.078125,-1.484375 0,-0.5 -0.453125,-0.921875 -1.203125,-1 0.84375,-0.15625 1.546875,-0.6875 1.546875,-1.28125 0,-0.53125 -0.53125,-1 -1.4375,-1 h -2.53125 c -0.140625,0 -0.234375,0 -0.234375,0.15625 0,0.09375 0.09375,0.09375 0.234375,0.09375 0,0 0.140625,0 0.265625,0.015625 0.140625,0.015625 0.15625,0.03125 0.15625,0.109375 0,0 0,0.046875 -0.03125,0.140625 z m 1.109375,-2.03125 0.421875,-1.6875 c 0.0625,-0.21875 0.0625,-0.25 0.359375,-0.25 h 1.0625 c 0.703125,0 0.875,0.46875 0.875,0.734375 0,0.5625 -0.640625,1.203125 -1.578125,1.203125 z M 2.109375,-0.25 C 1.890625,-0.25 1.875,-0.265625 1.875,-0.328125 c 0,0 0,-0.03125 0.03125,-0.140625 L 2.390625,-2.375 H 3.875 c 0.640625,0 0.90625,0.4375 0.90625,0.828125 0,0.703125 -0.71875,1.296875 -1.5625,1.296875 z m 0,0"
               id="id-89db4d2f-5a89-447a-87e2-a8f573eee631" />
          </g>
        </g>
      </g>
    </g>
    <path
       sodipodi:nodetypes="cc"
       id="path20479"
       d="m 141.8526,86.334524 -1e-4,285.923146"
       style="fill:none;fill-rule:evenodd;stroke:#000000;stroke-width:2.32959;stroke-linecap:butt;stroke-linejoin:miter;stroke-miterlimit:4;stroke-dasharray:2.32959, 6.98879;stroke-dashoffset:0;stroke-opacity:1" />
    <g
       id="g20525"
       transform="matrix(8.8047715,0,0,8.8047715,-201.9759,-817.825)">
      <rect
         style="fill:#ff9955;fill-rule:evenodd;stroke:#ff9955;stroke-width:0.264629;stroke-linecap:square;stroke-miterlimit:4;stroke-dasharray:none;stroke-dashoffset:0"
         id="rect20541"
         width="21.974665"
         height="3.9092679"
         x="39.05024"
         y="132.85593" />
      <g
         id="g20523">
        <path
           id="path20517"
           d="m 39.063682,132.82331 h 21.961221 v 3.94189"
           style="fill:none;fill-rule:evenodd;stroke:#000000;stroke-width:0.264629;stroke-linecap:butt;stroke-linejoin:miter;stroke-miterlimit:4;stroke-dasharray:none;stroke-opacity:1" />
        <path
           sodipodi:nodetypes="cccc"
           id="path20519"
           d="m 39.05024,132.85593 v 3.93282 h -3.886348 l -69.660039,0.0478"
           style="fill:none;fill-rule:evenodd;stroke:#000000;stroke-width:0.265;stroke-linecap:butt;stroke-linejoin:miter;stroke-miterlimit:4;stroke-dasharray:none;stroke-opacity:1" />
      </g>
    </g>
    <g
       transform="matrix(5.09898,0,0,5.09898,691.9625,-90.52479)"
       ns2:version="1.0.0"
       ns2:texconverter="pdflatex"
       ns2:pdfconverter="inkscape"
       ns2:text="$p_{0}$"
       ns2:preamble="/home/marcos/Documentos/docto/article-sim/imagenes/figuras.ini"
       ns2:scale="14.453791192534208"
       ns2:alignment="middle center"
       ns2:inkscapeversion="1.0"
       ns2:jacobian_sqrt="5.09898"
       id="g22843">
      <defs
         id="defs22827" />
      <g
         transform="translate(-148.4,-130.359)"
         id="g22841">
        <g
           id="g22833"
           style="fill:#000000;fill-opacity:1">
          <g
             transform="translate(148.712,134.765)"
             id="g22831">
            <path
               id="path22829"
               d="M 0.453125,1.21875 C 0.375,1.5625 0.34375,1.625 -0.09375,1.625 c -0.109375,0 -0.21875,0 -0.21875,0.1875 0,0.078125 0.046875,0.125 0.125,0.125 0.265625,0 0.5625,-0.03125 0.828125,-0.03125 0.34375,0 0.671875,0.03125 1,0.03125 0.046875,0 0.171875,0 0.171875,-0.203125 C 1.8125,1.625 1.71875,1.625 1.578125,1.625 c -0.5,0 -0.5,-0.0625 -0.5,-0.15625 0,-0.125 0.421875,-1.75 0.484375,-2 0.125,0.296875 0.40625,0.640625 0.921875,0.640625 1.15625,0 2.40625,-1.453125 2.40625,-2.921875 0,-0.9375 -0.578125,-1.59375 -1.328125,-1.59375 -0.5,0 -0.984375,0.359375 -1.3125,0.75 -0.09375,-0.546875 -0.53125,-0.75 -0.890625,-0.75 -0.46875,0 -0.65625,0.390625 -0.734375,0.5625 C 0.4375,-3.5 0.3125,-2.90625 0.3125,-2.875 c 0,0.109375 0.09375,0.109375 0.109375,0.109375 0.109375,0 0.109375,-0.015625 0.171875,-0.234375 0.171875,-0.703125 0.375,-1.1875 0.734375,-1.1875 0.171875,0 0.3125,0.078125 0.3125,0.453125 0,0.234375 -0.03125,0.34375 -0.078125,0.515625 z m 1.75,-4.328125 C 2.265625,-3.375 2.546875,-3.65625 2.71875,-3.8125 c 0.359375,-0.296875 0.640625,-0.375 0.8125,-0.375 0.390625,0 0.640625,0.34375 0.640625,0.9375 0,0.59375 -0.328125,1.734375 -0.515625,2.109375 -0.34375,0.703125 -0.8125,1.03125 -1.1875,1.03125 C 1.8125,-0.109375 1.6875,-0.9375 1.6875,-1 c 0,-0.015625 0,-0.03125 0.03125,-0.15625 z m 0,0"
               style="stroke:none" />
          </g>
        </g>
        <g
           id="g22839"
           style="fill:#000000;fill-opacity:1">
          <g
             transform="translate(153.725,136.259)"
             id="g22837">
            <path
               id="path22835"
               d="M 3.59375,-2.21875 C 3.59375,-2.984375 3.5,-3.546875 3.1875,-4.03125 2.96875,-4.34375 2.53125,-4.625 1.984375,-4.625 c -1.625,0 -1.625,1.90625 -1.625,2.40625 0,0.5 0,2.359375 1.625,2.359375 1.609375,0 1.609375,-1.859375 1.609375,-2.359375 z M 1.984375,-0.0625 c -0.328125,0 -0.75,-0.1875 -0.890625,-0.75 C 1,-1.21875 1,-1.796875 1,-2.3125 1,-2.828125 1,-3.359375 1.09375,-3.734375 1.25,-4.28125 1.6875,-4.4375 1.984375,-4.4375 c 0.375,0 0.734375,0.234375 0.859375,0.640625 0.109375,0.375 0.125,0.875 0.125,1.484375 0,0.515625 0,1.03125 -0.09375,1.46875 -0.140625,0.640625 -0.609375,0.78125 -0.890625,0.78125 z m 0,0"
               style="stroke:none" />
          </g>
        </g>
      </g>
    </g>
    <g
       id="g23547"
       ns2:jacobian_sqrt="5.09898"
       ns2:inkscapeversion="1.0"
       ns2:alignment="middle center"
       ns2:scale="14.453791192534208"
       ns2:preamble="/home/marcos/Documentos/docto/article-sim/imagenes/figuras.ini"
       ns2:text="$p_{1}$"
       ns2:pdfconverter="inkscape"
       ns2:texconverter="pdflatex"
       ns2:version="1.0.0"
       transform="matrix(5.09898,0,0,5.09898,692.7095,-2.89038)">
      <defs
         id="id-a55dec50-7aae-4698-81ab-e7c7098fbd14" />
      <g
         id="id-62bbc5de-fb57-43ea-abfc-52094d6d3fba"
         transform="translate(-148.4,-130.359)">
        <g
           style="fill:#000000;fill-opacity:1"
           id="id-bf45ae0d-b6da-41fc-9b6c-193e26fd1092">
          <g
             id="g23539"
             transform="translate(148.712,134.765)">
            <path
               style="stroke:none"
               d="M 0.453125,1.21875 C 0.375,1.5625 0.34375,1.625 -0.09375,1.625 c -0.109375,0 -0.21875,0 -0.21875,0.1875 0,0.078125 0.046875,0.125 0.125,0.125 0.265625,0 0.5625,-0.03125 0.828125,-0.03125 0.34375,0 0.671875,0.03125 1,0.03125 0.046875,0 0.171875,0 0.171875,-0.203125 C 1.8125,1.625 1.71875,1.625 1.578125,1.625 c -0.5,0 -0.5,-0.0625 -0.5,-0.15625 0,-0.125 0.421875,-1.75 0.484375,-2 0.125,0.296875 0.40625,0.640625 0.921875,0.640625 1.15625,0 2.40625,-1.453125 2.40625,-2.921875 0,-0.9375 -0.578125,-1.59375 -1.328125,-1.59375 -0.5,0 -0.984375,0.359375 -1.3125,0.75 -0.09375,-0.546875 -0.53125,-0.75 -0.890625,-0.75 -0.46875,0 -0.65625,0.390625 -0.734375,0.5625 C 0.4375,-3.5 0.3125,-2.90625 0.3125,-2.875 c 0,0.109375 0.09375,0.109375 0.109375,0.109375 0.109375,0 0.109375,-0.015625 0.171875,-0.234375 0.171875,-0.703125 0.375,-1.1875 0.734375,-1.1875 0.171875,0 0.3125,0.078125 0.3125,0.453125 0,0.234375 -0.03125,0.34375 -0.078125,0.515625 z m 1.75,-4.328125 C 2.265625,-3.375 2.546875,-3.65625 2.71875,-3.8125 c 0.359375,-0.296875 0.640625,-0.375 0.8125,-0.375 0.390625,0 0.640625,0.34375 0.640625,0.9375 0,0.59375 -0.328125,1.734375 -0.515625,2.109375 -0.34375,0.703125 -0.8125,1.03125 -1.1875,1.03125 C 1.8125,-0.109375 1.6875,-0.9375 1.6875,-1 c 0,-0.015625 0,-0.03125 0.03125,-0.15625 z m 0,0"
               id="id-82a39aac-7fd5-4f95-9598-2a8553921b83" />
          </g>
        </g>
        <g
           style="fill:#000000;fill-opacity:1"
           id="id-3429f7e9-57e1-43cd-8821-d0af2ee31efd">
          <g
             id="g23543"
             transform="translate(153.725,136.259)">
            <path
               style="stroke:none"
               d="m 2.328125,-4.4375 c 0,-0.1875 0,-0.1875 -0.203125,-0.1875 -0.453125,0.4375 -1.078125,0.4375 -1.359375,0.4375 v 0.25 c 0.15625,0 0.625,0 1,-0.1875 v 3.546875 c 0,0.234375 0,0.328125 -0.6875,0.328125 H 0.8125 V 0 c 0.125,0 0.984375,-0.03125 1.234375,-0.03125 0.21875,0 1.09375,0.03125 1.25,0.03125 V -0.25 H 3.03125 c -0.703125,0 -0.703125,-0.09375 -0.703125,-0.328125 z m 0,0"
               id="id-7d6c6cf0-828b-4bfb-b6e9-7f139b0aa52a" />
          </g>
        </g>
      </g>
    </g>
    <g
       id="g24163"
       ns2:jacobian_sqrt="5.09898"
       ns2:inkscapeversion="1.0"
       ns2:alignment="middle center"
       ns2:scale="14.453791192534208"
       ns2:preamble="/home/marcos/Documentos/docto/article-sim/imagenes/figuras.ini"
       ns2:text="$p_{2}$"
       ns2:pdfconverter="inkscape"
       ns2:texconverter="pdflatex"
       ns2:version="1.0.0"
       transform="matrix(5.09898,0,0,5.09898,688.4695,84.57232)">
      <defs
         id="id-da1c1c17-886f-4f34-967b-81de735a55e0" />
      <g
         id="id-4b8d1abe-3a1c-405d-8c5e-0c3532529bf8"
         transform="translate(-148.4,-130.359)">
        <g
           style="fill:#000000;fill-opacity:1"
           id="id-76039d1b-fa86-4937-9f50-599f5feb9200">
          <g
             id="g24155"
             transform="translate(148.712,134.765)">
            <path
               style="stroke:none"
               d="M 0.453125,1.21875 C 0.375,1.5625 0.34375,1.625 -0.09375,1.625 c -0.109375,0 -0.21875,0 -0.21875,0.1875 0,0.078125 0.046875,0.125 0.125,0.125 0.265625,0 0.5625,-0.03125 0.828125,-0.03125 0.34375,0 0.671875,0.03125 1,0.03125 0.046875,0 0.171875,0 0.171875,-0.203125 C 1.8125,1.625 1.71875,1.625 1.578125,1.625 c -0.5,0 -0.5,-0.0625 -0.5,-0.15625 0,-0.125 0.421875,-1.75 0.484375,-2 0.125,0.296875 0.40625,0.640625 0.921875,0.640625 1.15625,0 2.40625,-1.453125 2.40625,-2.921875 0,-0.9375 -0.578125,-1.59375 -1.328125,-1.59375 -0.5,0 -0.984375,0.359375 -1.3125,0.75 -0.09375,-0.546875 -0.53125,-0.75 -0.890625,-0.75 -0.46875,0 -0.65625,0.390625 -0.734375,0.5625 C 0.4375,-3.5 0.3125,-2.90625 0.3125,-2.875 c 0,0.109375 0.09375,0.109375 0.109375,0.109375 0.109375,0 0.109375,-0.015625 0.171875,-0.234375 0.171875,-0.703125 0.375,-1.1875 0.734375,-1.1875 0.171875,0 0.3125,0.078125 0.3125,0.453125 0,0.234375 -0.03125,0.34375 -0.078125,0.515625 z m 1.75,-4.328125 C 2.265625,-3.375 2.546875,-3.65625 2.71875,-3.8125 c 0.359375,-0.296875 0.640625,-0.375 0.8125,-0.375 0.390625,0 0.640625,0.34375 0.640625,0.9375 0,0.59375 -0.328125,1.734375 -0.515625,2.109375 -0.34375,0.703125 -0.8125,1.03125 -1.1875,1.03125 C 1.8125,-0.109375 1.6875,-0.9375 1.6875,-1 c 0,-0.015625 0,-0.03125 0.03125,-0.15625 z m 0,0"
               id="id-150ddccc-137a-45f0-9fef-3bc449d9e498" />
          </g>
        </g>
        <g
           style="fill:#000000;fill-opacity:1"
           id="id-ce3abf65-c3cf-4af7-9b5c-93bf602d94f5">
          <g
             id="g24159"
             transform="translate(153.725,136.259)">
            <path
               style="stroke:none"
               d="M 3.515625,-1.265625 H 3.28125 c -0.015625,0.15625 -0.09375,0.5625 -0.1875,0.625 C 3.046875,-0.59375 2.515625,-0.59375 2.40625,-0.59375 H 1.125 c 0.734375,-0.640625 0.984375,-0.84375 1.390625,-1.171875 0.515625,-0.40625 1,-0.84375 1,-1.5 0,-0.84375 -0.734375,-1.359375 -1.625,-1.359375 -0.859375,0 -1.453125,0.609375 -1.453125,1.25 0,0.34375 0.296875,0.390625 0.375,0.390625 0.15625,0 0.359375,-0.125 0.359375,-0.375 0,-0.125 -0.046875,-0.375 -0.40625,-0.375 C 0.984375,-4.21875 1.453125,-4.375 1.78125,-4.375 c 0.703125,0 1.0625,0.546875 1.0625,1.109375 0,0.609375 -0.4375,1.078125 -0.65625,1.328125 L 0.515625,-0.265625 C 0.4375,-0.203125 0.4375,-0.1875 0.4375,0 h 2.875 z m 0,0"
               id="id-eb4ba86e-cbf2-48e1-a716-e543b10b4d31" />
          </g>
        </g>
      </g>
    </g>
    <g
       id="g24779"
       ns2:jacobian_sqrt="5.09898"
       ns2:inkscapeversion="1.0"
       ns2:alignment="middle center"
       ns2:scale="14.453791192534208"
       ns2:preamble="/home/marcos/Documentos/docto/article-sim/imagenes/figuras.ini"
       ns2:text="$p_{3}$"
       ns2:pdfconverter="inkscape"
       ns2:texconverter="pdflatex"
       ns2:version="1.0.0"
       transform="matrix(5.09898,0,0,5.09898,688.3095,173.47453)">
      <defs
         id="id-ff685744-e1c3-4f1c-82d1-5107af3756d5" />
      <g
         id="id-69caddf2-c41c-4099-96fa-b9c4d4914a1c"
         transform="translate(-148.4,-130.359)">
        <g
           style="fill:#000000;fill-opacity:1"
           id="id-5090e65b-8243-4df9-bcf9-9ca34c2990e7">
          <g
             id="g24771"
             transform="translate(148.712,134.765)">
            <path
               style="stroke:none"
               d="M 0.453125,1.21875 C 0.375,1.5625 0.34375,1.625 -0.09375,1.625 c -0.109375,0 -0.21875,0 -0.21875,0.1875 0,0.078125 0.046875,0.125 0.125,0.125 0.265625,0 0.5625,-0.03125 0.828125,-0.03125 0.34375,0 0.671875,0.03125 1,0.03125 0.046875,0 0.171875,0 0.171875,-0.203125 C 1.8125,1.625 1.71875,1.625 1.578125,1.625 c -0.5,0 -0.5,-0.0625 -0.5,-0.15625 0,-0.125 0.421875,-1.75 0.484375,-2 0.125,0.296875 0.40625,0.640625 0.921875,0.640625 1.15625,0 2.40625,-1.453125 2.40625,-2.921875 0,-0.9375 -0.578125,-1.59375 -1.328125,-1.59375 -0.5,0 -0.984375,0.359375 -1.3125,0.75 -0.09375,-0.546875 -0.53125,-0.75 -0.890625,-0.75 -0.46875,0 -0.65625,0.390625 -0.734375,0.5625 C 0.4375,-3.5 0.3125,-2.90625 0.3125,-2.875 c 0,0.109375 0.09375,0.109375 0.109375,0.109375 0.109375,0 0.109375,-0.015625 0.171875,-0.234375 0.171875,-0.703125 0.375,-1.1875 0.734375,-1.1875 0.171875,0 0.3125,0.078125 0.3125,0.453125 0,0.234375 -0.03125,0.34375 -0.078125,0.515625 z m 1.75,-4.328125 C 2.265625,-3.375 2.546875,-3.65625 2.71875,-3.8125 c 0.359375,-0.296875 0.640625,-0.375 0.8125,-0.375 0.390625,0 0.640625,0.34375 0.640625,0.9375 0,0.59375 -0.328125,1.734375 -0.515625,2.109375 -0.34375,0.703125 -0.8125,1.03125 -1.1875,1.03125 C 1.8125,-0.109375 1.6875,-0.9375 1.6875,-1 c 0,-0.015625 0,-0.03125 0.03125,-0.15625 z m 0,0"
               id="id-445577d9-df93-4bef-a643-e73c0b949b01" />
          </g>
        </g>
        <g
           style="fill:#000000;fill-opacity:1"
           id="id-d7849d02-c78a-4e11-ab16-d5910d9c268f">
          <g
             id="g24775"
             transform="translate(153.725,136.259)">
            <path
               style="stroke:none"
               d="m 1.90625,-2.328125 c 0.546875,0 0.9375,0.375 0.9375,1.125 0,0.859375 -0.515625,1.125 -0.90625,1.125 -0.28125,0 -0.90625,-0.078125 -1.1875,-0.5 0.328125,0 0.40625,-0.234375 0.40625,-0.390625 0,-0.21875 -0.171875,-0.375 -0.390625,-0.375 -0.1875,0 -0.390625,0.125 -0.390625,0.40625 0,0.65625 0.71875,1.078125 1.5625,1.078125 0.96875,0 1.640625,-0.65625 1.640625,-1.34375 0,-0.546875 -0.4375,-1.09375 -1.203125,-1.25 0.71875,-0.265625 0.984375,-0.78125 0.984375,-1.21875 0,-0.546875 -0.625,-0.953125 -1.40625,-0.953125 -0.765625,0 -1.359375,0.375 -1.359375,0.9375 0,0.234375 0.15625,0.359375 0.359375,0.359375 0.21875,0 0.359375,-0.15625 0.359375,-0.34375 0,-0.203125 -0.140625,-0.359375 -0.359375,-0.375 0.25,-0.296875 0.71875,-0.375 0.984375,-0.375 0.3125,0 0.75,0.15625 0.75,0.75 0,0.296875 -0.09375,0.625 -0.28125,0.828125 -0.21875,0.265625 -0.421875,0.28125 -0.765625,0.3125 -0.171875,0.015625 -0.1875,0.015625 -0.21875,0.015625 -0.015625,0 -0.078125,0.015625 -0.078125,0.09375 0,0.09375 0.0625,0.09375 0.1875,0.09375 z m 0,0"
               id="id-f01992ac-6780-40a2-a939-0b48c55814ae" />
          </g>
        </g>
      </g>
    </g>
    <g
       transform="matrix(5.46824,0,0,5.46824,-61.4763,-186.22338)"
       ns2:version="1.3.0"
       ns2:texconverter="pdflatex"
       ns2:pdfconverter="inkscape"
       ns2:text="\\SI{200}{\\ns}"
       ns2:preamble="/home/cosmicray/Documentos/tesis-scicrt/images/figuras.ini"
       ns2:scale="15.50052055735044"
       ns2:alignment="middle center"
       ns2:inkscapeversion="1.0.1"
       ns2:jacobian_sqrt="5.46824"
       id="g3038">
      <defs
         id="id-e67eb78e-1eb8-4e99-998d-25aba85a5915">
        <g
           id="g5064">
          <symbol
             overflow="visible"
             id="symbol5046">
            <path
               style="stroke:none"
               d=""
               id="path5044" />
          </symbol>
          <symbol
             overflow="visible"
             id="symbol5050">
            <path
               style="stroke:none"
               d="M 4.703125,-0.796875 4.65625,-0.875 H 1.578125 c -0.046875,0 -0.125,-0.015625 -0.125,-0.078125 0,-0.015625 0,-0.03125 0.015625,-0.03125 C 2.296875,-1.96875 3.1875,-2.96875 3.765625,-4.03125 4.03125,-4.5 4.25,-4.96875 4.25,-5.515625 4.25,-6.375 3.625,-7.0625 2.734375,-7.0625 c -0.828125,0 -1.5625,0.53125 -2.09375,1.125 L 0.84375,-5.734375 C 1.21875,-6.0625 1.65625,-6.375 2.203125,-6.375 c 0.84375,0 1.125,0.796875 1.125,1.3125 0,1.1875 -0.78125,2.1875 -1.546875,3.09375 C 1.25,-1.34375 0.6875,-0.75 0.125,-0.171875 v 0.15625 h 4.34375 z m 0,0"
               id="path5048" />
          </symbol>
          <symbol
             overflow="visible"
             id="symbol5054">
            <path
               style="stroke:none"
               d="m 2.890625,-7.015625 c -0.4375,0.171875 -0.921875,0.421875 -1.25,0.75 -0.859375,0.84375 -1.296875,2.046875 -1.296875,3.25 0,1.140625 0.28125,3.15625 1.71875,3.15625 1.828125,0 2.515625,-2.109375 2.515625,-3.6875 0,-1.328125 -0.484375,-2.703125 -1.6875,-3.46875 z M 2.328125,-6.375 c 0.453125,0.1875 0.890625,0.875 0.96875,1 0.4375,0.796875 0.671875,1.640625 0.671875,2.53125 0,0.96875 -0.234375,2.328125 -1.453125,2.328125 -0.640625,0 -1.09375,-0.796875 -1.296875,-1.46875 C 1.0625,-2.53125 1,-3.125 1,-3.703125 c 0,-1 0.453125,-2.125 1.328125,-2.671875 z m 0,0"
               id="path5052" />
          </symbol>
          <symbol
             overflow="visible"
             id="symbol5058">
            <path
               style="stroke:none"
               d="M 2.09375,-0.171875 C 2.078125,-0.578125 2.0625,-0.875 2.0625,-1.15625 c 0,-0.734375 0.03125,-1.609375 0.0625,-2.328125 0.359375,-0.28125 0.828125,-0.609375 1.28125,-0.609375 0.703125,0 0.90625,0.609375 0.90625,1.609375 L 4.25,-0.78125 c 0,0.484375 0.171875,0.875 0.71875,0.875 0.484375,0 1.109375,-0.4375 1.578125,-0.875 L 6.453125,-1 H 6.3125 c -0.234375,0.1875 -0.5625,0.40625 -0.796875,0.40625 -0.546875,0 -0.46875,-0.453125 -0.46875,-1.953125 0,-0.640625 0,-1.59375 -0.203125,-1.84375 -0.1875,-0.21875 -0.484375,-0.28125 -0.765625,-0.28125 -0.640625,0 -1.328125,0.375 -1.890625,0.71875 l -0.078125,-0.0625 c -0.0625,-0.375 -0.21875,-0.671875 -0.71875,-0.671875 -0.359375,0 -0.9375,0.40625 -1.34375,0.703125 l 0.171875,0.21875 c 0.296875,-0.1875 0.53125,-0.34375 0.75,-0.34375 0.328125,0 0.359375,0.46875 0.359375,1.140625 0,0.8125 -0.0625,2.453125 -0.078125,2.953125 L 1.390625,0.0625 Z m 0,0"
               id="path5056" />
          </symbol>
          <symbol
             overflow="visible"
             id="symbol5062">
            <path
               style="stroke:none"
               d="M 3.75,-3.8125 C 3.71875,-4.421875 3.140625,-4.640625 2.625,-4.640625 c -0.828125,0 -1.734375,0.53125 -1.734375,1.421875 0,0.65625 0.625,1.015625 1.25,1.28125 0.46875,0.1875 0.984375,0.46875 0.984375,0.96875 0,0.40625 -0.421875,0.765625 -0.84375,0.765625 -0.625,0 -1.09375,-0.53125 -1.140625,-1.15625 H 1 L 0.515625,-0.65625 c 0.328125,0.625 0.875,0.828125 1.46875,0.828125 0.875,0 1.875,-0.53125 1.875,-1.546875 0,-0.46875 -0.375,-0.828125 -1.140625,-1.15625 -0.734375,-0.3125 -1.109375,-0.5625 -1.109375,-0.953125 0,-0.46875 0.359375,-0.8125 0.828125,-0.8125 0.4375,0 0.609375,0.34375 0.640625,0.78125 l 0.125,0.0625 z m 0,0"
               id="path5060" />
          </symbol>
        </g>
      </defs>
      <g
         id="id-b323d2fa-8490-4ce2-8c7a-08cbbfb819d4"
         transform="translate(-148.837,-127.703)">
        <g
           style="fill:#000000;fill-opacity:1"
           id="id-87879109-ce76-40ea-a07c-a53cce6b175e">
          <g
             transform="translate(148.712,134.765)"
             id="g2268">
            <path
               style="stroke:none"
               d="M 4.703125,-0.796875 4.65625,-0.875 H 1.578125 c -0.046875,0 -0.125,-0.015625 -0.125,-0.078125 0,-0.015625 0,-0.03125 0.015625,-0.03125 C 2.296875,-1.96875 3.1875,-2.96875 3.765625,-4.03125 4.03125,-4.5 4.25,-4.96875 4.25,-5.515625 4.25,-6.375 3.625,-7.0625 2.734375,-7.0625 c -0.828125,0 -1.5625,0.53125 -2.09375,1.125 L 0.84375,-5.734375 C 1.21875,-6.0625 1.65625,-6.375 2.203125,-6.375 c 0.84375,0 1.125,0.796875 1.125,1.3125 0,1.1875 -0.78125,2.1875 -1.546875,3.09375 C 1.25,-1.34375 0.6875,-0.75 0.125,-0.171875 v 0.15625 h 4.34375 z m 0,0"
               id="id-15e12e61-8a79-40d0-9e72-5ae77c92b5c5" />
          </g>
          <g
             transform="translate(153.69,134.765)"
             id="g2271">
            <path
               style="stroke:none"
               d="m 2.890625,-7.015625 c -0.4375,0.171875 -0.921875,0.421875 -1.25,0.75 -0.859375,0.84375 -1.296875,2.046875 -1.296875,3.25 0,1.140625 0.28125,3.15625 1.71875,3.15625 1.828125,0 2.515625,-2.109375 2.515625,-3.6875 0,-1.328125 -0.484375,-2.703125 -1.6875,-3.46875 z M 2.328125,-6.375 c 0.453125,0.1875 0.890625,0.875 0.96875,1 0.4375,0.796875 0.671875,1.640625 0.671875,2.53125 0,0.96875 -0.234375,2.328125 -1.453125,2.328125 -0.640625,0 -1.09375,-0.796875 -1.296875,-1.46875 C 1.0625,-2.53125 1,-3.125 1,-3.703125 c 0,-1 0.453125,-2.125 1.328125,-2.671875 z m 0,0"
               id="id-a1aed529-51a2-4e6b-83a9-b0a9eb698f28" />
          </g>
        </g>
        <g
           style="fill:#000000;fill-opacity:1"
           id="id-07f913fe-0e7f-4dae-ad9c-cff24c5a8738">
          <g
             transform="translate(158.679,134.765)"
             id="g2275">
            <path
               style="stroke:none"
               d="m 2.890625,-7.015625 c -0.4375,0.171875 -0.921875,0.421875 -1.25,0.75 -0.859375,0.84375 -1.296875,2.046875 -1.296875,3.25 0,1.140625 0.28125,3.15625 1.71875,3.15625 1.828125,0 2.515625,-2.109375 2.515625,-3.6875 0,-1.328125 -0.484375,-2.703125 -1.6875,-3.46875 z M 2.328125,-6.375 c 0.453125,0.1875 0.890625,0.875 0.96875,1 0.4375,0.796875 0.671875,1.640625 0.671875,2.53125 0,0.96875 -0.234375,2.328125 -1.453125,2.328125 -0.640625,0 -1.09375,-0.796875 -1.296875,-1.46875 C 1.0625,-2.53125 1,-3.125 1,-3.703125 c 0,-1 0.453125,-2.125 1.328125,-2.671875 z m 0,0"
               id="id-f3bdd4c2-6f7a-4e67-a9c5-1b787318bbf1" />
          </g>
        </g>
        <g
           style="fill:#000000;fill-opacity:1"
           id="id-89e1bd34-b4b2-4803-8c2f-c982b7f28f04">
          <g
             transform="translate(165.321,134.765)"
             id="g2279">
            <path
               style="stroke:none"
               d="M 2.09375,-0.171875 C 2.078125,-0.578125 2.0625,-0.875 2.0625,-1.15625 c 0,-0.734375 0.03125,-1.609375 0.0625,-2.328125 0.359375,-0.28125 0.828125,-0.609375 1.28125,-0.609375 0.703125,0 0.90625,0.609375 0.90625,1.609375 L 4.25,-0.78125 c 0,0.484375 0.171875,0.875 0.71875,0.875 0.484375,0 1.109375,-0.4375 1.578125,-0.875 L 6.453125,-1 H 6.3125 c -0.234375,0.1875 -0.5625,0.40625 -0.796875,0.40625 -0.546875,0 -0.46875,-0.453125 -0.46875,-1.953125 0,-0.640625 0,-1.59375 -0.203125,-1.84375 -0.1875,-0.21875 -0.484375,-0.28125 -0.765625,-0.28125 -0.640625,0 -1.328125,0.375 -1.890625,0.71875 l -0.078125,-0.0625 c -0.0625,-0.375 -0.21875,-0.671875 -0.71875,-0.671875 -0.359375,0 -0.9375,0.40625 -1.34375,0.703125 l 0.171875,0.21875 c 0.296875,-0.1875 0.53125,-0.34375 0.75,-0.34375 0.328125,0 0.359375,0.46875 0.359375,1.140625 0,0.8125 -0.0625,2.453125 -0.078125,2.953125 L 1.390625,0.0625 Z m 0,0"
               id="id-183eacac-2577-471b-abd3-3b21d76a89fe" />
          </g>
        </g>
        <g
           style="fill:#000000;fill-opacity:1"
           id="id-d84cdae3-7b0c-4a67-9b62-9a1adfd7ab28">
          <g
             transform="translate(171.93,134.765)"
             id="g2283">
            <path
               style="stroke:none"
               d="M 3.75,-3.8125 C 3.71875,-4.421875 3.140625,-4.640625 2.625,-4.640625 c -0.828125,0 -1.734375,0.53125 -1.734375,1.421875 0,0.65625 0.625,1.015625 1.25,1.28125 0.46875,0.1875 0.984375,0.46875 0.984375,0.96875 0,0.40625 -0.421875,0.765625 -0.84375,0.765625 -0.625,0 -1.09375,-0.53125 -1.140625,-1.15625 H 1 L 0.515625,-0.65625 c 0.328125,0.625 0.875,0.828125 1.46875,0.828125 0.875,0 1.875,-0.53125 1.875,-1.546875 0,-0.46875 -0.375,-0.828125 -1.140625,-1.15625 -0.734375,-0.3125 -1.109375,-0.5625 -1.109375,-0.953125 0,-0.46875 0.359375,-0.8125 0.828125,-0.8125 0.4375,0 0.609375,0.34375 0.640625,0.78125 l 0.125,0.0625 z m 0,0"
               id="id-8fb359e8-30d5-40b2-8ec3-97511c93902f" />
          </g>
        </g>
      </g>
    </g>
    <g
       transform="matrix(5.09898,0,0,5.09898,-250.9663,13.30362)"
       ns2:version="1.3.0"
       ns2:texconverter="pdflatex"
       ns2:pdfconverter="inkscape"
       ns2:text="$t_{p}=\\SI{150}{\\ns}$"
       ns2:preamble="/home/cosmicray/Documentos/tesis-scicrt/images/figuras.ini"
       ns2:scale="14.453791192534208"
       ns2:alignment="middle center"
       ns2:inkscapeversion="1.0.1"
       ns2:jacobian_sqrt="5.09898"
       id="g3250">
      <defs
         id="id-c4080414-e165-40dc-8d7c-7ebdae2ed8b3">
        <g
           id="g5127">
          <symbol
             overflow="visible"
             id="symbol5085">
            <path
               style="stroke:none"
               d=""
               id="path5083" />
          </symbol>
          <symbol
             overflow="visible"
             id="symbol5089">
            <path
               style="stroke:none"
               d="m 1.375,-5.796875 c 0.015625,0.25 0.015625,0.890625 0.015625,1.40625 l -0.0625,0.046875 h -1.03125 l -0.0625,0.0625 -0.0625,0.25 0.046875,0.046875 h 1.109375 l 0.0625,0.0625 v 1.890625 c 0,1.359375 0.03125,1.546875 0.234375,1.8125 0.171875,0.234375 0.484375,0.3125 0.71875,0.3125 0.578125,0 1.171875,-0.453125 1.640625,-0.875 L 3.90625,-0.9375 3.78125,-0.953125 c -0.296875,0.1875 -0.65625,0.40625 -0.90625,0.40625 -0.625,0 -0.703125,-0.78125 -0.703125,-1.5 v -1.875 l 0.0625,-0.0625 h 1.1875 L 3.484375,-4.03125 3.5625,-4.296875 3.515625,-4.34375 h -1.28125 l -0.0625,-0.046875 C 2.1875,-4.96875 2.234375,-5.46875 2.28125,-6.046875 L 2.21875,-6.09375 Z m 0,0"
               id="path5087" />
          </symbol>
          <symbol
             overflow="visible"
             id="symbol5093">
            <path
               style="stroke:none"
               d="M 3.078125,-7.09375 0.921875,-6.375 v 0.28125 H 1.75 c 0.609375,0 0.46875,0.8125 0.46875,1.921875 C 2.21875,-2.78125 2.1875,-1.390625 2.140625,0 L 2.25,0.046875 3.09375,-0.21875 C 3.0625,-0.984375 3.0625,-2.953125 3.0625,-4.3125 c 0,-0.875 0.015625,-1.78125 0.0625,-2.671875 z m 0,0"
               id="path5091" />
          </symbol>
          <symbol
             overflow="visible"
             id="symbol5097">
            <path
               style="stroke:none"
               d="m 1.25,-5.921875 c 0,-0.0625 0.0625,-0.09375 0.109375,-0.09375 0.484375,0 1.734375,-0.03125 2.609375,-0.0625 L 4.234375,-6.84375 h -3.34375 l -0.0625,0.0625 v 3.265625 l 0.125,0.109375 C 1.28125,-3.71875 1.6875,-3.9375 2.125,-3.9375 c 1.03125,0 1.390625,0.890625 1.390625,1.71875 0,1.015625 -0.546875,1.953125 -1.65625,1.953125 -0.625,0 -0.96875,-0.5625 -1.1875,-1.046875 H 0.5625 L 0.125,-0.75 v 0.109375 c 0.40625,0.484375 1.015625,0.75 1.65625,0.75 1.4375,0 2.6875,-1.09375 2.6875,-2.609375 0,-1.125 -0.734375,-1.921875 -1.90625,-1.921875 -0.453125,0 -0.90625,0.171875 -1.3125,0.375 z m 0,0"
               id="path5095" />
          </symbol>
          <symbol
             overflow="visible"
             id="symbol5101">
            <path
               style="stroke:none"
               d="m 2.890625,-7.015625 c -0.4375,0.171875 -0.921875,0.421875 -1.25,0.75 -0.859375,0.84375 -1.296875,2.046875 -1.296875,3.25 0,1.140625 0.28125,3.15625 1.71875,3.15625 1.828125,0 2.515625,-2.109375 2.515625,-3.6875 0,-1.328125 -0.484375,-2.703125 -1.6875,-3.46875 z M 2.328125,-6.375 c 0.453125,0.1875 0.890625,0.875 0.96875,1 0.4375,0.796875 0.671875,1.640625 0.671875,2.53125 0,0.96875 -0.234375,2.328125 -1.453125,2.328125 -0.640625,0 -1.09375,-0.796875 -1.296875,-1.46875 C 1.0625,-2.53125 1,-3.125 1,-3.703125 c 0,-1 0.453125,-2.125 1.328125,-2.671875 z m 0,0"
               id="path5099" />
          </symbol>
          <symbol
             overflow="visible"
             id="symbol5105">
            <path
               style="stroke:none"
               d="M 2.09375,-0.171875 C 2.078125,-0.578125 2.0625,-0.875 2.0625,-1.15625 c 0,-0.734375 0.03125,-1.609375 0.0625,-2.328125 0.359375,-0.28125 0.828125,-0.609375 1.28125,-0.609375 0.703125,0 0.90625,0.609375 0.90625,1.609375 L 4.25,-0.78125 c 0,0.484375 0.171875,0.875 0.71875,0.875 0.484375,0 1.109375,-0.4375 1.578125,-0.875 L 6.453125,-1 H 6.3125 c -0.234375,0.1875 -0.5625,0.40625 -0.796875,0.40625 -0.546875,0 -0.46875,-0.453125 -0.46875,-1.953125 0,-0.640625 0,-1.59375 -0.203125,-1.84375 -0.1875,-0.21875 -0.484375,-0.28125 -0.765625,-0.28125 -0.640625,0 -1.328125,0.375 -1.890625,0.71875 l -0.078125,-0.0625 c -0.0625,-0.375 -0.21875,-0.671875 -0.71875,-0.671875 -0.359375,0 -0.9375,0.40625 -1.34375,0.703125 l 0.171875,0.21875 c 0.296875,-0.1875 0.53125,-0.34375 0.75,-0.34375 0.328125,0 0.359375,0.46875 0.359375,1.140625 0,0.8125 -0.0625,2.453125 -0.078125,2.953125 L 1.390625,0.0625 Z m 0,0"
               id="path5103" />
          </symbol>
          <symbol
             overflow="visible"
             id="symbol5109">
            <path
               style="stroke:none"
               d="M 3.75,-3.8125 C 3.71875,-4.421875 3.140625,-4.640625 2.625,-4.640625 c -0.828125,0 -1.734375,0.53125 -1.734375,1.421875 0,0.65625 0.625,1.015625 1.25,1.28125 0.46875,0.1875 0.984375,0.46875 0.984375,0.96875 0,0.40625 -0.421875,0.765625 -0.84375,0.765625 -0.625,0 -1.09375,-0.53125 -1.140625,-1.15625 H 1 L 0.515625,-0.65625 c 0.328125,0.625 0.875,0.828125 1.46875,0.828125 0.875,0 1.875,-0.53125 1.875,-1.546875 0,-0.46875 -0.375,-0.828125 -1.140625,-1.15625 -0.734375,-0.3125 -1.109375,-0.5625 -1.109375,-0.953125 0,-0.46875 0.359375,-0.8125 0.828125,-0.8125 0.4375,0 0.609375,0.34375 0.640625,0.78125 l 0.125,0.0625 z m 0,0"
               id="path5107" />
          </symbol>
          <symbol
             overflow="visible"
             id="symbol5113">
            <path
               style="stroke:none"
               d=""
               id="path5111" />
          </symbol>
          <symbol
             overflow="visible"
             id="symbol5117">
            <path
               style="stroke:none"
               d="M 1.9375,1.5625 C 1.890625,1.171875 1.859375,0.4375 1.859375,0.078125 L 1.9375,0.015625 c 0.15625,0.046875 0.328125,0.0625 0.515625,0.0625 0.796875,0 1.671875,-0.59375 2,-1.3125 0.140625,-0.296875 0.21875,-0.6875 0.21875,-1.03125 C 4.671875,-2.8125 4.375,-3.53125 3.5,-3.53125 c -0.59375,0 -1.109375,0.25 -1.578125,0.5625 L 1.859375,-3 c -0.046875,-0.34375 -0.1875,-0.5625 -0.5625,-0.5625 -0.375,0 -0.8125,0.28125 -1.171875,0.515625 L 0.25,-2.90625 C 0.453125,-3.015625 0.703125,-3.125 0.875,-3.125 c 0.25,0 0.34375,0.390625 0.34375,0.734375 v 1.671875 c 0,0.4375 -0.015625,1.984375 -0.0625,2.4375 L 1.25,1.796875 Z M 1.875,-0.5 c 0,0 -0.015625,-0.78125 -0.015625,-1.40625 C 1.859375,-2 1.875,-2.5625 1.875,-2.609375 c 0.40625,-0.28125 0.75,-0.4375 1.1875,-0.4375 0.546875,0 0.890625,0.5625 0.890625,1.234375 0,0.734375 -0.296875,1.59375 -1.328125,1.59375 -0.28125,0 -0.546875,-0.109375 -0.75,-0.28125 z m 0,0"
               id="path5115" />
          </symbol>
          <symbol
             overflow="visible"
             id="symbol5121">
            <path
               style="stroke:none"
               d=""
               id="path5119" />
          </symbol>
          <symbol
             overflow="visible"
             id="symbol5125">
            <path
               style="stroke:none"
               d="m 7.140625,-3.28125 0.0625,-0.390625 H 0.609375 L 0.53125,-3.28125 Z m 0,1.96875 0.0625,-0.40625 H 0.609375 L 0.53125,-1.3125 Z m 0,0"
               id="path5123" />
          </symbol>
        </g>
      </defs>
      <g
         id="id-e5a5d352-b653-4d2f-8176-72d28d570e44"
         transform="translate(-148.884,-127.671)">
        <g
           style="fill:#000000;fill-opacity:1"
           id="id-12d828a0-1d15-49e4-b662-352540c5babf">
          <g
             transform="translate(148.712,134.765)"
             id="g2742">
            <path
               style="stroke:none"
               d="m 1.375,-5.796875 c 0.015625,0.25 0.015625,0.890625 0.015625,1.40625 l -0.0625,0.046875 h -1.03125 l -0.0625,0.0625 -0.0625,0.25 0.046875,0.046875 h 1.109375 l 0.0625,0.0625 v 1.890625 c 0,1.359375 0.03125,1.546875 0.234375,1.8125 0.171875,0.234375 0.484375,0.3125 0.71875,0.3125 0.578125,0 1.171875,-0.453125 1.640625,-0.875 L 3.90625,-0.9375 3.78125,-0.953125 c -0.296875,0.1875 -0.65625,0.40625 -0.90625,0.40625 -0.625,0 -0.703125,-0.78125 -0.703125,-1.5 v -1.875 l 0.0625,-0.0625 h 1.1875 L 3.484375,-4.03125 3.5625,-4.296875 3.515625,-4.34375 h -1.28125 l -0.0625,-0.046875 C 2.1875,-4.96875 2.234375,-5.46875 2.28125,-6.046875 L 2.21875,-6.09375 Z m 0,0"
               id="id-ce379f5f-f81d-432e-9a1e-6ba048149a37" />
          </g>
        </g>
        <g
           style="fill:#000000;fill-opacity:1"
           id="id-ace3a2fc-f0a9-4261-8747-59f8275a3dc3">
          <g
             transform="translate(152.867,136.259)"
             id="g2746">
            <path
               style="stroke:none"
               d="M 1.9375,1.5625 C 1.890625,1.171875 1.859375,0.4375 1.859375,0.078125 L 1.9375,0.015625 c 0.15625,0.046875 0.328125,0.0625 0.515625,0.0625 0.796875,0 1.671875,-0.59375 2,-1.3125 0.140625,-0.296875 0.21875,-0.6875 0.21875,-1.03125 C 4.671875,-2.8125 4.375,-3.53125 3.5,-3.53125 c -0.59375,0 -1.109375,0.25 -1.578125,0.5625 L 1.859375,-3 c -0.046875,-0.34375 -0.1875,-0.5625 -0.5625,-0.5625 -0.375,0 -0.8125,0.28125 -1.171875,0.515625 L 0.25,-2.90625 C 0.453125,-3.015625 0.703125,-3.125 0.875,-3.125 c 0.25,0 0.34375,0.390625 0.34375,0.734375 v 1.671875 c 0,0.4375 -0.015625,1.984375 -0.0625,2.4375 L 1.25,1.796875 Z M 1.875,-0.5 c 0,0 -0.015625,-0.78125 -0.015625,-1.40625 C 1.859375,-2 1.875,-2.5625 1.875,-2.609375 c 0.40625,-0.28125 0.75,-0.4375 1.1875,-0.4375 0.546875,0 0.890625,0.5625 0.890625,1.234375 0,0.734375 -0.296875,1.59375 -1.328125,1.59375 -0.28125,0 -0.546875,-0.109375 -0.75,-0.28125 z m 0,0"
               id="id-387ea2a5-8c4d-43ce-b714-a0d7984465d0" />
          </g>
        </g>
        <g
           style="fill:#000000;fill-opacity:1"
           id="id-8decf288-cc96-4d9c-a905-a1220da9fd0a">
          <g
             transform="translate(161.637,134.765)"
             id="g2750">
            <path
               style="stroke:none"
               d="m 7.140625,-3.28125 0.0625,-0.390625 H 0.609375 L 0.53125,-3.28125 Z m 0,1.96875 0.0625,-0.40625 H 0.609375 L 0.53125,-1.3125 Z m 0,0"
               id="id-c7a12915-e4c7-4142-ba14-0568a1a1c13f" />
          </g>
        </g>
        <g
           style="fill:#000000;fill-opacity:1"
           id="id-7731347c-d7e2-4504-94b9-4ce7825ccf81">
          <g
             transform="translate(171.936,134.765)"
             id="g2754">
            <path
               style="stroke:none"
               d="M 3.078125,-7.09375 0.921875,-6.375 v 0.28125 H 1.75 c 0.609375,0 0.46875,0.8125 0.46875,1.921875 C 2.21875,-2.78125 2.1875,-1.390625 2.140625,0 L 2.25,0.046875 3.09375,-0.21875 C 3.0625,-0.984375 3.0625,-2.953125 3.0625,-4.3125 c 0,-0.875 0.015625,-1.78125 0.0625,-2.671875 z m 0,0"
               id="id-156ebaaf-0158-493b-9546-7fa4d7fb8e99" />
          </g>
          <g
             transform="translate(176.914,134.765)"
             id="g2757">
            <path
               style="stroke:none"
               d="m 1.25,-5.921875 c 0,-0.0625 0.0625,-0.09375 0.109375,-0.09375 0.484375,0 1.734375,-0.03125 2.609375,-0.0625 L 4.234375,-6.84375 h -3.34375 l -0.0625,0.0625 v 3.265625 l 0.125,0.109375 C 1.28125,-3.71875 1.6875,-3.9375 2.125,-3.9375 c 1.03125,0 1.390625,0.890625 1.390625,1.71875 0,1.015625 -0.546875,1.953125 -1.65625,1.953125 -0.625,0 -0.96875,-0.5625 -1.1875,-1.046875 H 0.5625 L 0.125,-0.75 v 0.109375 c 0.40625,0.484375 1.015625,0.75 1.65625,0.75 1.4375,0 2.6875,-1.09375 2.6875,-2.609375 0,-1.125 -0.734375,-1.921875 -1.90625,-1.921875 -0.453125,0 -0.90625,0.171875 -1.3125,0.375 z m 0,0"
               id="id-db6db028-a3e7-4dd2-ac60-da9b23031995" />
          </g>
        </g>
        <g
           style="fill:#000000;fill-opacity:1"
           id="id-8d826bb1-0267-4731-98fc-1fe3abecaaed">
          <g
             transform="translate(181.903,134.765)"
             id="g2761">
            <path
               style="stroke:none"
               d="m 2.890625,-7.015625 c -0.4375,0.171875 -0.921875,0.421875 -1.25,0.75 -0.859375,0.84375 -1.296875,2.046875 -1.296875,3.25 0,1.140625 0.28125,3.15625 1.71875,3.15625 1.828125,0 2.515625,-2.109375 2.515625,-3.6875 0,-1.328125 -0.484375,-2.703125 -1.6875,-3.46875 z M 2.328125,-6.375 c 0.453125,0.1875 0.890625,0.875 0.96875,1 0.4375,0.796875 0.671875,1.640625 0.671875,2.53125 0,0.96875 -0.234375,2.328125 -1.453125,2.328125 -0.640625,0 -1.09375,-0.796875 -1.296875,-1.46875 C 1.0625,-2.53125 1,-3.125 1,-3.703125 c 0,-1 0.453125,-2.125 1.328125,-2.671875 z m 0,0"
               id="id-6896ebdc-2162-4ace-9118-5583370b861a" />
          </g>
        </g>
        <g
           style="fill:#000000;fill-opacity:1"
           id="id-e6229c0b-665e-4600-aa1e-66de7369d661">
          <g
             transform="translate(188.545,134.765)"
             id="g2765">
            <path
               style="stroke:none"
               d="M 2.09375,-0.171875 C 2.078125,-0.578125 2.0625,-0.875 2.0625,-1.15625 c 0,-0.734375 0.03125,-1.609375 0.0625,-2.328125 0.359375,-0.28125 0.828125,-0.609375 1.28125,-0.609375 0.703125,0 0.90625,0.609375 0.90625,1.609375 L 4.25,-0.78125 c 0,0.484375 0.171875,0.875 0.71875,0.875 0.484375,0 1.109375,-0.4375 1.578125,-0.875 L 6.453125,-1 H 6.3125 c -0.234375,0.1875 -0.5625,0.40625 -0.796875,0.40625 -0.546875,0 -0.46875,-0.453125 -0.46875,-1.953125 0,-0.640625 0,-1.59375 -0.203125,-1.84375 -0.1875,-0.21875 -0.484375,-0.28125 -0.765625,-0.28125 -0.640625,0 -1.328125,0.375 -1.890625,0.71875 l -0.078125,-0.0625 c -0.0625,-0.375 -0.21875,-0.671875 -0.71875,-0.671875 -0.359375,0 -0.9375,0.40625 -1.34375,0.703125 l 0.171875,0.21875 c 0.296875,-0.1875 0.53125,-0.34375 0.75,-0.34375 0.328125,0 0.359375,0.46875 0.359375,1.140625 0,0.8125 -0.0625,2.453125 -0.078125,2.953125 L 1.390625,0.0625 Z m 0,0"
               id="id-0cc86274-2486-4b8b-abd7-7080453b0501" />
          </g>
        </g>
        <g
           style="fill:#000000;fill-opacity:1"
           id="id-633c0f5b-e90c-432c-aaac-ad04ae98f58c">
          <g
             transform="translate(195.154,134.765)"
             id="g2769">
            <path
               style="stroke:none"
               d="M 3.75,-3.8125 C 3.71875,-4.421875 3.140625,-4.640625 2.625,-4.640625 c -0.828125,0 -1.734375,0.53125 -1.734375,1.421875 0,0.65625 0.625,1.015625 1.25,1.28125 0.46875,0.1875 0.984375,0.46875 0.984375,0.96875 0,0.40625 -0.421875,0.765625 -0.84375,0.765625 -0.625,0 -1.09375,-0.53125 -1.140625,-1.15625 H 1 L 0.515625,-0.65625 c 0.328125,0.625 0.875,0.828125 1.46875,0.828125 0.875,0 1.875,-0.53125 1.875,-1.546875 0,-0.46875 -0.375,-0.828125 -1.140625,-1.15625 -0.734375,-0.3125 -1.109375,-0.5625 -1.109375,-0.953125 0,-0.46875 0.359375,-0.8125 0.828125,-0.8125 0.4375,0 0.609375,0.34375 0.640625,0.78125 l 0.125,0.0625 z m 0,0"
               id="id-f6ecfe8a-40c4-4a5f-bf35-f642390c824c" />
          </g>
        </g>
      </g>
    </g>
  </g>
</svg>
